<?xml version="1.0" encoding="utf-8"?>
<!-- Generator: Adobe Illustrator 26.0.2, SVG Export Plug-In . SVG Version: 6.00 Build 0)  -->
<svg version="1.1" id="Layer_1" xmlns="http://www.w3.org/2000/svg" xmlns:xlink="http://www.w3.org/1999/xlink" x="0px" y="0px"
	 viewBox="0 0 324 52" style="enable-background:new 0 0 324 52;" xml:space="preserve">
<style type="text/css">
	.st0{fill:#2C2834;}
	.st1{fill:#4F328A;}
</style>
<g>
	<path class="st0" d="M0,47.8V4.2h12.5c10.6,0,15.2,3.5,15.2,11.5c0,4.4-1.9,7.5-5.7,9.2V25c4.3,1.5,6.6,4.5,6.6,10
		c0,10.5-7.2,12.8-16,12.8H0z M13.1,21.5c2.7,0,4.3-1.3,4.3-4.6c0-3.1-1.8-4-4.3-4H10v8.6H13.1z M13.3,39.1c3.7,0,5-1.5,5-4.9
		c0-3.7-2-4.9-4.9-4.9H10v9.8H13.3z"/>
	<path class="st0" d="M34.5,47.8V4.2h13c10.2,0,15.3,4.3,15.3,13.9c0,9.2-5.5,14.2-15,14.2h-3.1v15.6H34.5z M48,23.6
		c2.2,0,4.3-1.4,4.3-5.6c0-3.6-1.8-5-4.3-5h-3.3v10.6H48z"/>
	<path class="st0" d="M84.8,16.5c-0.7-2.7-2.1-4.8-4.7-4.8c-2,0-3.3,1.2-3.3,3c0,7.7,17.4,6.7,17.4,21.3c0,7.9-5.5,12.4-14.1,12.4
		c-8.3,0-12.5-3.7-13.9-11.9l9.4-1.8c0.4,3.4,1.8,5.5,4.9,5.5c2.2,0,4-1.2,4-3.5c0-8.1-17.4-7-17.4-21.6C67,8.2,72,3.6,79.9,3.6
		c8.3,0,11.9,4.2,13.6,11.1L84.8,16.5z"/>
	<g>
		<path class="st1" d="M115.6,47.8V4.7h22v6.5h-14.9v11.2h11.1v6.2h-11.1v12.7h15.7v6.5H115.6z"/>
		<path class="st1" d="M161.2,47.8l-6.7-15.5h-0.1l-6.7,15.5h-7.6l10-22.3l-9.3-20.8h7.8l5.9,13.9h0.1l6.2-13.9h7.6L159,25.5
			l10,22.3H161.2z"/>
		<path class="st1" d="M173.1,47.8V4.7h11c9.5,0,14.3,4,14.3,12.8c0,8.6-5,13.1-14.3,13.1h-3.9v17.1H173.1z M184.5,24.4
			c3.5,0,6.7-1.6,6.7-6.8c0-4.6-2.4-6.4-6.6-6.4h-4.3v13.2H184.5z"/>
		<path class="st1" d="M204.1,47.8V4.7h7.1v36.6h14.4v6.5H204.1z"/>
		<path class="st1" d="M228,26.3c0-14.3,4.1-22.1,14.2-22.1s14.3,7.8,14.3,22.1c0,14.2-4.4,22.1-14.3,22.1S228,40.4,228,26.3z
			 M249.2,26.3c0-11.2-2.3-15.9-7-15.9c-4.6,0-7,4.7-7,15.9c0,11.6,2.5,16,7,16C246.7,42.2,249.2,37.9,249.2,26.3z"/>
		<path class="st1" d="M281.4,47.8l-6.2-17.8h-5.5v17.8h-7.1V4.7H274c9.2,0,13.7,3.5,13.7,11.9c0,5.5-2.3,8.8-6.1,10.5l7.5,20.6
			H281.4z M273.9,24c3.2,0,6.6-1.1,6.6-6.7c0-6.1-3.4-6.4-6.7-6.4h-4V24H273.9z"/>
		<path class="st1" d="M294.6,47.8V4.7h22v6.5h-14.9v11.2h11.1v6.2h-11.1v12.7h15.7v6.5H294.6z"/>
	</g>
</g>
</svg>
