<?xml version="1.0" encoding="utf-8"?>
<!-- Generator: Adobe Illustrator 19.2.0, SVG Export Plug-In . SVG Version: 6.00 Build 0)  -->
<svg version="1.1" id="Layer_1" xmlns="http://www.w3.org/2000/svg" xmlns:xlink="http://www.w3.org/1999/xlink" x="0px" y="0px"
	 viewBox="0 0 53.5 39.1" style="enable-background:new 0 0 53.5 39.1;" xml:space="preserve">
<style type="text/css">
	.st0{fill:#1D3135;}
</style>
<g transform="translate(-23.29 -30.44)">
	<path class="st0" d="M34.5,69.6c-3,0.1-5.9-1.1-8-3.3c-2.1-2.2-3.2-5.4-3.2-9.6c0-5.3,1.5-10.5,4.3-14.9c2.7-4.6,6.5-8.4,11-11.2
		l5.5,3.6c-2,1.9-3.8,4.1-5.3,6.5c-1.7,2.5-2.9,5.3-3.3,8.3c2.5,0.2,4.9,1.3,6.7,3.1c1.9,1.8,2.9,4.3,2.8,6.9c0.1,2.9-1,5.7-3.1,7.8
		C39.9,68.5,37.3,69.6,34.5,69.6z M66.2,69.6c-3,0.1-5.9-1.1-8-3.3C56.1,64,55,60.8,55,56.6c0-5.3,1.5-10.5,4.3-14.9
		c2.7-4.6,6.5-8.4,11-11.2l5.6,3.6c-2,1.9-3.8,4.1-5.3,6.5c-1.7,2.5-2.9,5.3-3.3,8.3c2.5,0.2,4.9,1.3,6.7,3.1
		c1.9,1.8,2.9,4.3,2.8,6.9c0.1,2.9-1,5.7-3.1,7.7C71.7,68.5,69,69.6,66.2,69.6z"/>
</g>
</svg>
